<svg width="80" height="80" viewBox="0 0 80 80" fill="none" xmlns="http://www.w3.org/2000/svg">
<path d="M0 40L20 5.35898H60L80 40L60 74.641H20L0 40Z" fill="#04C2C9"/>
<path d="M55.5124 31.2943C55.5146 27.8377 54.363 24.641 52.4232 22.0809C50.7219 19.8323 48.4112 18.0691 45.7343 17.0341L45.7481 16.9607L44.6054 16.6252C43.7167 16.3676 42.8007 16.1889 41.8666 16.0927L41.7338 16.078H41.7293L41.7246 16.0768C41.2668 16.0333 40.7903 16 40.2935 16H40.2203C39.7233 16 39.247 16.0335 38.789 16.0768L38.7821 16.078L38.6448 16.0927C37.7118 16.1888 36.7956 16.3675 35.9093 16.6252L34.8034 16.948L34.8148 17.0214C32.1242 18.0552 29.7998 19.823 28.0891 22.0807C26.1519 24.6407 25 27.8373 25 31.2941C25 33.7728 25.4283 35.8107 26.0946 37.4972C27.0952 40.0264 28.6226 41.7347 29.8501 43.0306C30.4639 43.6764 31.0044 44.2282 31.3705 44.6998C31.7461 45.1738 31.9269 45.5403 31.9795 45.8311C32.2473 47.2463 32.2748 49.0324 32.2748 49.4857V49.6163C32.2748 51.6633 33.9329 53.3167 35.9778 53.319H44.5363C46.5837 53.3168 48.2393 51.661 48.2393 49.6163V49.4904C48.2371 49.0415 48.2668 47.2508 48.5347 45.8334C48.5712 45.6365 48.6583 45.412 48.83 45.1373C49.1231 44.6586 49.6774 44.0633 50.3643 43.3465C51.3902 42.268 52.6954 40.908 53.7329 38.9741C54.7726 37.0427 55.517 34.5479 55.5124 31.2943ZM52.0156 36.5462C51.198 38.6083 49.9705 40.0039 48.7868 41.254C48.1958 41.8793 47.6165 42.4609 47.1106 43.1045C46.6115 43.7388 46.165 44.4647 45.9932 45.3554C45.6703 47.0934 45.6565 48.9574 45.6546 49.491C45.6546 49.5619 45.6546 49.6007 45.6546 49.6168C45.6524 50.2351 45.1553 50.7342 44.5371 50.7342H35.9786C35.6649 50.7342 35.3924 50.6106 35.1862 50.4069C34.9826 50.2007 34.8612 49.9304 34.8612 49.617C34.8612 49.6009 34.8612 49.5597 34.8612 49.4865C34.859 48.9486 34.8428 47.089 34.52 45.3557C34.4102 44.7673 34.1696 44.2404 33.8789 43.7734C33.3637 42.9559 32.7043 42.2828 32.0239 41.5614C30.996 40.4899 29.908 39.3322 29.0607 37.7533C28.2157 36.1733 27.5883 34.1653 27.5859 31.2949C27.5881 28.4154 28.5385 25.7728 30.1506 23.6422C31.7628 21.5137 34.0299 19.9062 36.6471 19.1233L36.97 19.0249C37.6021 18.8622 38.2501 18.7329 38.9176 18.663H38.9221L39.0458 18.6492C39.4373 18.6116 39.8173 18.5874 40.193 18.5852L40.2594 18.5921L40.3258 18.5876C40.6989 18.5876 41.0813 18.6128 41.4707 18.6494H41.4659L41.5943 18.6632H41.5965C42.2627 18.733 42.9109 18.86 43.5406 19.0251L43.868 19.1234C46.4853 19.9064 48.7522 21.5141 50.3645 23.6424C51.974 25.773 52.9268 28.4157 52.9268 31.2951C52.927 33.4816 52.5606 35.1688 52.0156 36.5462ZM38.6448 16.0927C38.6448 16.0927 38.6469 16.0931 38.6491 16.0931L38.6448 16.0927ZM44.5022 54.3316H36.0122C35.1352 54.3316 34.4208 55.0416 34.4208 55.9254C34.4208 56.8001 35.1354 57.5148 36.0122 57.5148H44.5022C45.3793 57.5148 46.0936 56.8002 46.0936 55.9254C46.0936 55.0414 45.379 54.3316 44.5022 54.3316ZM44.5022 58.3481H36.0122C35.1352 58.3481 34.4208 59.0602 34.4208 59.9374C34.4208 60.8189 35.1354 61.5312 36.0122 61.5312H44.5022C45.3793 61.5312 46.0936 60.8191 46.0936 59.9374C46.0936 59.0603 45.379 58.3481 44.5022 58.3481ZM41.001 62.3965H36.6286C36.6286 62.4447 36.6194 62.4903 36.6194 62.5409C36.6194 63.4203 37.9705 64.1323 39.2196 64.1323H41.2943C42.5445 64.1323 43.8933 63.4203 43.8933 62.5409C43.8933 62.4907 43.8864 62.4448 43.8864 62.3965H41.001Z" fill="white"/>
</svg>
