<svg width="80" height="80" viewBox="0 0 80 80" fill="none" xmlns="http://www.w3.org/2000/svg">
<path d="M0 40L20 5.35898H60L80 40L60 74.641H20L0 40Z" fill="#04C2C9"/>
<path fill-rule="evenodd" clip-rule="evenodd" d="M32.208 18.4172C31.419 19.2062 30.467 22.5582 30.093 25.8662L29.412 31.8812L24.206 32.1812L19 32.4822V45.4822V58.4822L35.252 58.7572C48.337 58.9782 52.084 58.7312 54.485 57.4902C59.11 55.0982 60.776 50.8742 60.315 42.7102C59.818 33.9162 57.938 31.9822 49.889 31.9822H44.5V26.9372C44.5 22.9132 44.003 21.3942 42.045 19.4372C39.273 16.6642 34.46 16.1652 32.208 18.4172ZM38.635 22.0542C40.368 22.9822 40.595 23.9602 40.319 29.3042L40 35.4822L47 35.7652C55.37 36.1042 56.5 37.1502 56.5 44.5622C56.5 53.0812 54.753 54.4072 42.967 54.8332L33.256 55.1832L33.661 39.3332C34.027 25.0522 34.573 20.9822 36.125 20.9822C36.403 20.9822 37.533 21.4652 38.635 22.0542ZM29.288 45.2322L29 54.4822H26H23L22.712 45.2322L22.425 35.9822H26H29.575L29.288 45.2322Z" fill="white"/>
</svg>
