<svg width="50" height="67" viewBox="0 0 50 67" fill="none" xmlns="http://www.w3.org/2000/svg">
<mask id="mask0_6_29" style="mask-type:luminance" maskUnits="userSpaceOnUse" x="0" y="0" width="44" height="67">
<path d="M0 0H43.3595V66.2196H0V0Z" fill="#00A2FF"/>
</mask>
<g mask="url(#mask0_6_29)">
<path fill-rule="evenodd" clip-rule="evenodd" d="M43.3595 30.4054C38.5757 30.4054 29.5749 30.4594 29.5749 30.4594V1.22502H27.4653C16.1017 1.22502 12.8212 1.3496 7.71347 0C7.71347 0 7.82351 5.07449 13.0516 7.83182C8.41111 12.3685 7.03867 19.0895 7.03867 26.0991C7.03867 33.1087 6.38879 38.4095 5.54581 42.5559C3.67091 51.783 0 58.9504 0 58.9504C2.85209 59.6482 5.82041 59.7282 8.70594 59.185V66.2196C27.5027 66.2196 43.3595 55.0387 43.3595 34.2362V30.4054Z" fill="#00A2FF"/>
</g>
<path fill-rule="evenodd" clip-rule="evenodd" d="M29.5774 23.0824V36.9727C32.2183 36.972 34.8258 36.3824 37.2101 35.2467C39.5943 34.1109 41.6953 32.4578 43.3599 30.4075L29.5774 23.0824Z" fill="#FFC600"/>
<path fill-rule="evenodd" clip-rule="evenodd" d="M29.5767 36.9747C21.344 36.9747 14.6687 30.2268 14.6687 21.9008C14.6687 13.5727 21.344 6.82277 29.5767 6.82277V36.9747Z" fill="#FAFDFD"/>
<path fill-rule="evenodd" clip-rule="evenodd" d="M26.2077 19.596C26.2104 20.0514 26.1235 20.5028 25.9517 20.9246C25.78 21.3463 25.5268 21.7301 25.2068 22.054C24.8867 22.3779 24.506 22.6356 24.0863 22.8124C23.6667 22.9892 23.2163 23.0816 22.7609 23.0843C21.8417 23.0782 20.9625 22.7073 20.3166 22.0532C19.6707 21.3991 19.311 20.5153 19.3165 19.596C19.3121 18.6772 19.6727 17.7942 20.3189 17.1409C20.9651 16.4877 21.8442 16.1177 22.763 16.1122C24.6649 16.1122 26.2098 17.6713 26.2098 19.596" fill="#50505F"/>
<path fill-rule="evenodd" clip-rule="evenodd" d="M38.1152 3.11849C35.4423 1.86965 32.5277 1.22322 29.5774 1.22492V23.082H50V21.8841C50.0103 17.9494 48.8974 14.0935 46.7921 10.7693C44.6868 7.44519 41.6765 4.79096 38.1149 3.11849" fill="#1EDA69"/>
<path fill-rule="evenodd" clip-rule="evenodd" d="M25.3385 45.303C22.6707 52.4931 16.3774 57.8916 8.70959 59.2141L8.70337 66.2155C18.2251 64.1495 25.3637 55.5887 25.3637 45.3422" fill="#0087FF"/>
</svg>
