<svg width="70" height="71" viewBox="0 0 70 71" fill="none" xmlns="http://www.w3.org/2000/svg">
<path fill-rule="evenodd" clip-rule="evenodd" d="M29.7166 0.135787C25.5779 0.817505 20.8202 2.5257 16.9999 4.70106C15.7621 5.40594 11.8131 8.44963 10.5771 9.65113C5.53333 14.5549 2.31336 20.3075 0.601131 27.4743C0.0715213 29.6919 0 30.589 0 35.0276C0 39.4563 0.0722768 40.3682 0.598613 42.5826C2.25544 49.5537 5.19788 54.8468 10.1918 59.8409C15.1693 64.8182 20.2672 67.6554 27.45 69.4456C29.4184 69.9362 30.3955 70.012 34.8792 70.0216C38.9864 70.0304 40.4279 69.941 41.9306 69.5839C44.8325 68.8944 47.1886 68.1426 48.9253 67.3521C49.7944 66.9565 50.5612 66.6329 50.6295 66.6329C50.6977 66.6329 51.6298 66.1043 52.7008 65.4581C61.3506 60.2398 66.6359 53.1272 69.3204 43.0931C69.9556 40.7193 69.9961 40.236 69.9996 35.0276C70.0034 29.561 69.9926 29.4471 69.1885 26.4914C67.3675 19.7976 64.0301 14.0243 59.4447 9.63501C57.9473 8.20132 54.1184 5.29942 52.5077 4.3772C50.4368 3.19156 46.373 1.5846 43.5675 0.842185C41.0544 0.177088 40.3412 0.10053 35.8865 0.018684C33.1856 -0.0309276 30.4091 0.021706 29.7166 0.135787ZM37.2346 12.3856C39.3022 12.9212 41.5415 13.8822 42.9321 14.8306C45.761 16.7597 48.2433 20.2811 49.3879 23.9889C49.9697 25.8739 50.0734 26.6553 50.0676 29.1094C50.0616 31.5709 49.9634 32.2788 49.4121 33.8266C48.2836 36.9949 46.0108 39.7774 43.33 41.2731C42.7838 41.5778 42.3499 41.9354 42.366 42.0676C42.4018 42.3628 43.4796 42.7539 49.7375 44.7421C52.4384 45.6001 54.7316 46.3758 54.8334 46.4659C55.127 46.7256 53.4309 49.0588 52.0392 50.3099C48.9918 53.0499 44.4482 53.99 40.6714 52.6618C39.3379 52.1929 36.9503 50.7758 35.4566 49.567C34.8739 49.0953 34.2788 48.7826 34.1345 48.872C33.9675 48.975 33.8719 50.727 33.8719 53.6782C33.8719 59.0199 34.0841 58.6827 31.2679 57.8129C26.3095 56.2812 20.9535 51.5925 18.1855 46.3602C15.819 41.8863 14.4496 35.262 14.854 30.2427C15.475 22.536 19.4649 16.3852 25.6872 13.542C28.9731 12.0405 33.9716 11.5399 37.2346 12.3856ZM31.3011 22.1444C27.4624 23.2261 25.1573 27.4033 26.2682 31.2649C27.7706 36.4882 34.1224 38.2657 38.2704 34.6236C42.0613 31.2951 40.8605 24.3724 36.1507 22.4046C34.8878 21.877 32.6724 21.7581 31.3011 22.1444Z" fill="#0087FF"/>
</svg>
