<svg width="80" height="80" viewBox="0 0 80 80" fill="none" xmlns="http://www.w3.org/2000/svg">
<path d="M0 40L20 5.35898H60L80 40L60 74.641H20L0 40Z" fill="#04C2C9"/>
<path d="M62.6667 32.8889H59.3333V28.4444C59.3333 25.9944 57.3389 24 54.8889 24H20.4444C17.9944 24 16 25.9944 16 28.4444V47.3333C16 49.7833 17.9944 51.7778 20.4444 51.7778H33.5333L32.8667 55.1111H30.4444C29.8333 55.1111 29.3333 55.6111 29.3333 56.2222C29.3333 56.8333 29.8333 57.3333 30.4444 57.3333H44.8889C45.5 57.3333 46 56.8333 46 56.2222C46 55.6111 45.5 55.1111 44.8889 55.1111H42.4667L41.8 51.7778H49.3333V54C49.3333 55.8389 50.8278 57.3333 52.6667 57.3333H62.6667C64.5056 57.3333 66 55.8389 66 54V36.2222C66 34.3833 64.5056 32.8889 62.6667 32.8889ZM35.1333 55.1111L35.8 51.7778H39.5333L40.2 55.1111H35.1333ZM49.3333 49.5556H20.4444C19.2167 49.5556 18.2222 48.5611 18.2222 47.3333V46.2222H49.3333V49.5556ZM49.3333 36.2222V44H18.2222V28.4444C18.2222 27.2167 19.2167 26.2222 20.4444 26.2222H54.8889C56.1167 26.2222 57.1111 27.2167 57.1111 28.4444V32.8889H52.6667C50.8278 32.8889 49.3333 34.3833 49.3333 36.2222ZM63.7778 54C63.7778 54.6111 63.2778 55.1111 62.6667 55.1111H52.6667C52.0556 55.1111 51.5556 54.6111 51.5556 54V52.3333H63.7778V54ZM63.7778 50.1111H51.5556V40.1111H63.7778V50.1111ZM63.7778 37.8889H51.5556V36.2222C51.5556 35.6111 52.0556 35.1111 52.6667 35.1111H62.6667C63.2778 35.1111 63.7778 35.6111 63.7778 36.2222V37.8889Z" fill="white"/>
</svg>
